Coordinates
nRows=248
nColumns=2
inDegrees=yes
endheader
time	ankle_angle_r	
3.42641	 -0.426604	
3.45968	 -0.407018	
3.49294	 -0.371277	
3.52621	 -0.437342	
3.55948	 -0.401988	
3.59274	 -0.402084	
3.62601	 -0.493734	
3.65927	 -0.421697	
3.69254	 -0.427246	
3.72581	 -0.503540	
3.75907	 -0.451924	
3.79234	 -0.424697	
3.8256	 -0.476216	
3.85887	 -0.457764	
3.89214	 -0.439698	
3.9254	 -0.503540	
3.95867	 -0.488281	
3.99194	 -0.488281	
4.0252	 -0.505573	
4.05847	 -0.503540	
4.09173	 -0.471376	
4.125	 -0.481378	
4.15827	 -0.496541	
4.19153	 -0.450668	
4.2248	 -0.503540	
4.25806	 -0.480312	
4.29133	 -0.404601	
4.3246	 -0.457764	
4.35786	 -0.442505	
4.39113	 -0.404405	
4.4244	 -0.427246	
4.45766	 -0.404118	
4.49093	 -0.411313	
4.52419	 -0.465827	
4.55746	 -0.427246	
4.59073	 -0.403731	
4.62399	 -0.427246	
4.65726	 -0.396729	
4.69052	 -0.403441	
4.72379	 -0.444532	
4.75706	 -0.442505	
4.79032	 -0.418410	
4.82359	 -0.473022	
4.85685	 -0.402957	
4.89012	 -0.393734	
4.92339	 -0.448540	
4.95665	 -0.394171	
4.98992	 -0.411987	
5.02319	 -0.421501	
5.05645	 -0.415949	
5.08972	 -0.436953	
5.12298	 -0.452308	
5.15625	 -0.406629	
5.18952	 -0.453029	
5.22278	 -0.498612	
5.25605	 -0.483213	
5.28931	 -0.487938	
5.32258	 -0.493157	
5.35585	 -0.467321	
5.38911	 -0.457764	
5.42238	 -0.508125	
5.45565	 -0.477511	
5.48891	 -0.490590	
5.52218	 -0.527389	
5.55544	 -0.477221	
5.58871	 -0.492383	
5.62198	 -0.530052	
5.65524	 -0.518799	
5.68851	 -0.537869	
5.72177	 -0.534058	
5.75504	 -0.468619	
5.78831	 -0.464807	
5.82157	 -0.476447	
5.85484	 -0.488281	
5.8881	 -0.440173	
5.92137	 -0.473022	
5.95464	 -0.457764	
5.9879	 -0.424304	
6.02117	 -0.470178	
6.05444	 -0.427246	
6.0877	 -0.419942	
6.12097	 -0.442505	
6.15423	 -0.383928	
6.1875	 -0.457764	
6.22077	 -0.460028	
6.25403	 -0.431582	
6.2873	 -0.446648	
6.32056	 -0.429221	
6.35383	 -0.431002	
6.3871	 -0.429027	
6.42036	 -0.456079	
6.45363	 -0.427246	
6.4869	 -0.485299	
6.52016	 -0.428641	
6.55343	 -0.455168	
6.58669	 -0.473022	
6.61996	 -0.459973	
6.65323	 -0.475038	
6.68649	 -0.460497	
6.71976	 -0.473022	
6.75302	 -0.518799	
6.78629	 -0.503540	
6.81956	 -0.520372	
6.85282	 -0.473450	
6.88609	 -0.504202	
6.91935	 -0.503306	
6.95262	 -0.457764	
6.98589	 -0.473022	
7.01915	 -0.534002	
7.05242	 -0.503388	
7.08569	 -0.473022	
7.11895	 -0.564229	
7.15222	 -0.488281	
7.18548	 -0.564036	
7.21875	 -0.549952	
7.25202	 -0.472290	
7.28528	 -0.535716	
7.31855	 -0.488281	
7.35181	 -0.458786	
7.38508	 -0.517680	
7.41835	 -0.515151	
7.45161	 -0.485656	
7.48488	 -0.515980	
7.51815	 -0.488281	
7.55141	 -0.457764	
7.58468	 -0.528960	
7.61794	 -0.524187	
7.65121	 -0.461549	
7.68448	 -0.551306	
7.71774	 -0.531972	
7.75101	 -0.477388	
7.78427	 -0.518799	
7.81754	 -0.514047	
7.85081	 -0.529112	
7.88407	 -0.546747	
7.91734	 -0.546650	
7.9506	 -0.516036	
7.98387	 -0.534058	
8.01714	 -0.534058	
8.0504	 -0.442505	
8.08367	 -0.485132	
8.11694	 -0.454517	
8.1502	 -0.442505	
8.18347	 -0.469583	
8.21673	 -0.469486	
8.25	 -0.461397	
8.28327	 -0.465563	
8.31653	 -0.495887	
8.3498	 -0.415910	
8.38306	 -0.488281	
8.41633	 -0.461880	
8.4496	 -0.438292	
8.48286	 -0.462074	
8.51613	 -0.462170	
8.5494	 -0.422743	
8.58266	 -0.477622	
8.61593	 -0.478888	
8.64919	 -0.411987	
8.68246	 -0.447395	
8.71573	 -0.463049	
8.74899	 -0.442505	
8.78226	 -0.462944	
8.81552	 -0.518799	
8.84879	 -0.513425	
8.88206	 -0.513329	
8.91532	 -0.493848	
8.94859	 -0.513135	
8.98185	 -0.528297	
9.01512	 -0.528201	
9.04839	 -0.518799	
9.08165	 -0.515640	
9.11492	 -0.515617	
9.14819	 -0.488281	
9.18145	 -0.509880	
9.21472	 -0.536443	
9.24798	 -0.510074	
9.28125	 -0.586464	
9.31452	 -0.564575	
9.34778	 -0.488281	
9.38105	 -0.525719	
9.41431	 -0.542299	
9.44758	 -0.510654	
9.48085	 -0.496330	
9.51411	 -0.496233	
9.54738	 -0.465619	
9.58065	 -0.518799	
9.61391	 -0.473022	
9.64718	 -0.450070	
9.68044	 -0.496394	
9.71371	 -0.534058	
9.74698	 -0.434521	
9.78024	 -0.464942	
9.81351	 -0.471927	
9.84677	 -0.442505	
9.88004	 -0.443987	
9.91331	 -0.512007	
9.94657	 -0.427246	
9.97984	 -0.466424	
10.0131	 -0.473022	
10.0464	 -0.427246	
10.0796	 -0.481973	
10.1129	 -0.491117	
10.1462	 -0.433361	
10.1794	 -0.467005	
10.2127	 -0.524720	
10.246	 -0.446114	
10.2792	 -0.497812	
10.3125	 -0.492278	
10.3458	 -0.478557	
10.379	 -0.549316	
10.4123	 -0.554658	
10.4456	 -0.513554	
10.4788	 -0.539021	
10.5121	 -0.539109	
10.5454	 -0.488281	
10.5786	 -0.544459	
10.6119	 -0.523560	
10.6452	 -0.489547	
10.6784	 -0.477590	
10.7117	 -0.490127	
10.745	 -0.457764	
10.7782	 -0.477300	
10.8115	 -0.516083	
10.8448	 -0.499456	
10.878	 -0.495565	
10.9113	 -0.522690	
10.9446	 -0.480611	
10.9778	 -0.518799	
11.0111	 -0.537658	
11.0444	 -0.503540	
11.0776	 -0.534058	
11.1109	 -0.534058	
11.1442	 -0.515585	
11.1774	 -0.537175	
11.2107	 -0.592072	
11.244	 -0.515875	
11.2772	 -0.546489	
11.3105	 -0.549316	
11.3437	 -0.516165	
11.377	 -0.521336	
11.4103	 -0.518799	
11.4435	 -0.503540	
11.4768	 -0.464505	
11.5101	 -0.545015	
11.5433	 -0.518799	
11.5766	 -0.549316	
11.6099	 -0.532197	
11.6431	 -0.501776	
